<svg xmlns="http://www.w3.org/2000/svg" viewBox="0 0 64 64" width="64" height="64">
  <defs>
    <linearGradient id="bg" x1="0" y1="0" x2="1" y2="1">
      <stop offset="0" stop-color="#e2402f"/>
      <stop offset="1" stop-color="#8f1d13"/>
    </linearGradient>
  </defs>
  <rect x="2" y="2" width="60" height="60" rx="15" fill="url(#bg)"/>
  <g stroke-linejoin="round">
    <g transform="rotate(-45 32 32)">
      <path d="M32 9 L35.5 16 L35.5 39 L28.5 39 L28.5 16 Z" fill="#f4f6fa"/>
      <rect x="23.5" y="39" width="17" height="4.5" rx="1.6" fill="#f0a830"/>
      <rect x="30" y="43.5" width="4" height="8" fill="#2a1c10"/>
      <circle cx="32" cy="53.5" r="2.7" fill="#f0a830"/>
    </g>
    <g transform="rotate(45 32 32)">
      <path d="M32 9 L35.5 16 L35.5 39 L28.5 39 L28.5 16 Z" fill="#f4f6fa"/>
      <rect x="23.5" y="39" width="17" height="4.5" rx="1.6" fill="#f0a830"/>
      <rect x="30" y="43.5" width="4" height="8" fill="#2a1c10"/>
      <circle cx="32" cy="53.5" r="2.7" fill="#f0a830"/>
    </g>
  </g>
</svg>
